<svg width="28" height="28" viewBox="0 0 28 28" fill="none" xmlns="http://www.w3.org/2000/svg">
<path d="M2.33334 9.83331C2.33334 7.9477 2.33334 7.00489 2.91912 6.4191C3.50491 5.83331 4.44772 5.83331 6.33334 5.83331H21.6667C23.5523 5.83331 24.4951 5.83331 25.0809 6.4191C25.6667 7.00489 25.6667 7.94769 25.6667 9.83331V10.6666C25.6667 11.1381 25.6667 11.3738 25.5202 11.5202C25.3738 11.6666 25.1381 11.6666 24.6667 11.6666H3.33334C2.86193 11.6666 2.62623 11.6666 2.47978 11.5202C2.33334 11.3738 2.33334 11.1381 2.33334 10.6666V9.83331Z" fill="#9CA3AF"/>
<path d="M2.33334 21.6667C2.33334 23.5523 2.33334 24.4951 2.91912 25.0809C3.50491 25.6667 4.44772 25.6667 6.33334 25.6667H21.6667C23.5523 25.6667 24.4951 25.6667 25.0809 25.0809C25.6667 24.4951 25.6667 23.5523 25.6667 21.6667V15C25.6667 14.5286 25.6667 14.2929 25.5202 14.1465C25.3738 14 25.1381 14 24.6667 14H3.33334C2.86193 14 2.62623 14 2.47978 14.1465C2.33334 14.2929 2.33334 14.5286 2.33334 15V21.6667Z" fill="#9CA3AF"/>
<path d="M8.16666 3.5L8.16666 7" stroke="#9CA3AF" stroke-width="2" stroke-linecap="round"/>
<path d="M19.8333 3.5L19.8333 7" stroke="#9CA3AF" stroke-width="2" stroke-linecap="round"/>
</svg>
