<svg width="43" height="45" viewBox="0 0 43 45" fill="none" xmlns="http://www.w3.org/2000/svg">
<path d="M17.4792 18.493C17.4792 17.0088 15.5929 16.6155 15.0925 18.0041C13.882 21.3632 13 24.3682 13 25.9928C13 31.1705 17.0108 35.3678 21.9583 35.3678C26.9059 35.3678 30.9167 31.1705 30.9167 25.9928C30.9167 24.2474 29.8986 20.9087 28.5489 17.2493C26.8004 12.5089 25.9262 10.1387 24.8471 10.0111C24.5018 9.97021 24.1251 10.0437 23.817 10.2119C22.8542 10.7377 22.8542 13.3228 22.8542 18.493C22.8542 20.0463 21.6509 21.3055 20.1667 21.3055C18.6824 21.3055 17.4792 20.0463 17.4792 18.493Z" fill="#6366F1"/>
</svg>
