<svg width="24" height="24" viewBox="0 0 24 24" fill="none" xmlns="http://www.w3.org/2000/svg">
<path d="M11 15V21H8C7.05719 21 6.58586 20.9999 6.29297 20.707C6.00008 20.4141 6 19.9428 6 19V15H11ZM18 19C18 19.9428 17.9999 20.4141 17.707 20.707C17.4141 20.9999 16.9428 21 16 21H13V15H18V19ZM19 8C19.9428 8 20.4141 8.00008 20.707 8.29297C20.9999 8.58586 21 9.05719 21 10V11C21 11.9428 20.9999 12.4141 20.707 12.707C20.4141 12.9999 19.9428 13 19 13H13V8H19ZM11 13H5C4.05719 13 3.58586 12.9999 3.29297 12.707C3.00008 12.4141 3 11.9428 3 11V10C3 9.05719 3.00008 8.58586 3.29297 8.29297C3.58586 8.00008 4.05719 8 5 8H11V13Z" fill="#222222"/>
<path d="M19 4.63246V4.45035C19 3.24487 17.819 2.39366 16.6754 2.77487C15.2448 3.25174 13.9449 4.05514 12.8786 5.12144L12 6V7H15.6754C15.8904 7 16.104 6.96534 16.3079 6.89737L17.7026 6.43246C18.4774 6.1742 19 5.44914 19 4.63246Z" fill="#222222"/>
<path d="M5 4.63246V4.45035C5 3.24487 6.18099 2.39366 7.3246 2.77487C8.75521 3.25174 10.0551 4.05514 11.1214 5.12144L12 6V7H8.32456C8.10959 7 7.89603 6.96534 7.6921 6.89737L6.29737 6.43246C5.52259 6.1742 5 5.44914 5 4.63246Z" fill="#222222"/>
</svg>
