<svg width="24" height="25" viewBox="0 0 24 25" fill="none" xmlns="http://www.w3.org/2000/svg">
<path d="M19.9404 0C21.8257 9.98875e-10 22.7687 0.000401253 23.3545 0.585938C23.9402 1.17173 23.9404 2.11451 23.9404 4V20.25C23.9404 22.1355 23.9402 23.0783 23.3545 23.6641C22.7687 24.2496 21.8257 24.25 19.9404 24.25H8.27539C6.39008 24.25 5.44707 24.2498 4.86133 23.6641C4.49019 23.2928 4.35445 22.7779 4.30469 21.9707H7.30078C8.40526 21.9707 9.30068 21.0752 9.30078 19.9707C9.30075 18.8662 8.4053 17.9707 7.30078 17.9707H4.27539V14.8389H7.30078C8.4051 14.8388 9.30043 13.9431 9.30078 12.8389C9.30078 11.7343 8.40532 10.8389 7.30078 10.8389H4.27539V7.70605H7.30078C8.40526 7.70602 9.30068 6.81052 9.30078 5.70605C9.30078 4.60151 8.40532 3.70609 7.30078 3.70605H4.27734C4.27892 2.01499 4.30702 1.14047 4.86133 0.585938C5.44707 0.000197875 6.39007 2.78807e-08 8.27539 0H19.9404ZM7.30078 18.9707C7.85302 18.9707 8.30075 19.4185 8.30078 19.9707C8.30068 20.5229 7.85297 20.9707 7.30078 20.9707H1.25C0.697967 20.9705 0.250099 20.5228 0.25 19.9707C0.250026 19.4186 0.697922 18.9709 1.25 18.9707H7.30078ZM7.30078 11.8389C7.85303 11.8389 8.30078 12.2866 8.30078 12.8389C8.30043 13.3908 7.85282 13.8388 7.30078 13.8389H1.25C0.698122 13.8386 0.250349 13.3907 0.25 12.8389C0.25 12.2867 0.697906 11.8391 1.25 11.8389H7.30078ZM17.8896 4.70605C17.3377 4.7063 16.8898 5.15403 16.8896 5.70605V8.55859C16.8896 9.11073 17.3376 9.55835 17.8896 9.55859C18.4418 9.55847 18.8896 9.1108 18.8896 8.55859V5.70605C18.8895 5.15396 18.4417 4.70618 17.8896 4.70605ZM7.30078 4.70605C7.85303 4.70609 8.30078 5.15379 8.30078 5.70605C8.30068 6.25823 7.85297 6.70602 7.30078 6.70605H1.25C0.697967 6.70583 0.250099 6.25812 0.25 5.70605C0.25 5.15391 0.697906 4.70628 1.25 4.70605H7.30078Z" fill="#9CA3AF"/>
</svg>
