<svg width="18" height="26" viewBox="0 0 18 26" fill="none" xmlns="http://www.w3.org/2000/svg">
<path d="M4.47917 8.49298C4.47917 7.00884 2.59294 6.61546 2.09251 8.00412C0.882007 11.3632 0 14.3682 0 15.9928C0 21.1705 4.01078 25.3678 8.95833 25.3678C13.9059 25.3678 17.9167 21.1705 17.9167 15.9928C17.9167 14.2474 16.8986 10.9087 15.5489 7.24928C13.8004 2.50891 12.9262 0.138728 11.8471 0.0110641C11.5018 -0.029786 11.1251 0.0436584 10.817 0.211896C9.85417 0.737669 9.85417 3.32277 9.85417 8.49298C9.85417 10.0463 8.65093 11.3055 7.16667 11.3055C5.6824 11.3055 4.47917 10.0463 4.47917 8.49298Z" fill="#6366F1"/>
</svg>
