<svg width="27" height="27" viewBox="0 0 27 27" fill="none" xmlns="http://www.w3.org/2000/svg">
<path d="M13.5 19C14.7657 19 15.9958 19.418 17 20.1885C18.0042 20.959 18.7261 22.0391 19.0537 23.2617C19.0552 23.2673 19.057 23.2728 19.0586 23.2783C17.4185 24.2127 15.5226 24.75 13.5 24.75C11.4771 24.75 9.5807 24.2129 7.94043 23.2783C7.94204 23.2727 7.94477 23.2674 7.94629 23.2617C8.27391 22.0391 8.99584 20.959 10 20.1885C11.0042 19.418 12.2343 19 13.5 19ZM13.5 2.25C19.7132 2.25 24.75 7.2868 24.75 13.5C24.75 16.9388 23.2048 20.0145 20.7734 22.0781C20.269 20.7053 19.3856 19.4977 18.2178 18.6016C16.8643 17.563 15.206 17 13.5 17C11.794 17 10.1357 17.563 8.78223 18.6016C7.61427 19.4978 6.73 20.7051 6.22559 22.0781C3.79459 20.0145 2.25 16.9386 2.25 13.5C2.25 7.2868 7.2868 2.25 13.5 2.25ZM13.5 5.75C11.0838 5.75 9.125 7.70875 9.125 10.125C9.125 12.5412 11.0838 14.5 13.5 14.5C15.9162 14.5 17.875 12.5412 17.875 10.125C17.875 7.70875 15.9162 5.75 13.5 5.75ZM13.5 7.75C14.8117 7.75 15.875 8.81332 15.875 10.125C15.875 11.4367 14.8117 12.5 13.5 12.5C12.1883 12.5 11.125 11.4367 11.125 10.125C11.125 8.81332 12.1883 7.75 13.5 7.75Z" fill="#222222"/>
<rect x="2.75" y="2.75" width="21.5" height="21.5" rx="10.75" stroke="#222222"/>
</svg>
