<svg width="25" height="25" viewBox="0 0 25 25" fill="none" xmlns="http://www.w3.org/2000/svg">
<path d="M16.2148 0.5C19.9861 0.5 21.8714 0.500302 23.043 1.67188C24.2145 2.84345 24.2148 4.72876 24.2148 8.5V16.5C24.2148 20.2712 24.2145 22.1566 23.043 23.3281C21.8714 24.4997 19.9861 24.5 16.2148 24.5H8.21484C4.44361 24.5 2.55829 24.4997 1.38672 23.3281C0.215146 22.1566 0.214844 20.2712 0.214844 16.5V8.5C0.214844 4.72876 0.215146 2.84345 1.38672 1.67188C2.55829 0.500302 4.44361 0.5 8.21484 0.5H16.2148ZM12.2148 16.2998C10.4098 16.2998 8.65469 16.8953 7.22266 17.9941C5.79063 19.093 4.76115 20.6344 4.29395 22.3779C4.15132 22.9112 4.46785 23.4595 5.00098 23.6025C5.5343 23.7454 6.08246 23.4287 6.22559 22.8955C6.57885 21.5772 7.35768 20.4119 8.44043 19.5811C9.52317 18.7503 10.8501 18.2998 12.2148 18.2998C13.5795 18.2998 14.9066 18.7503 15.9893 19.5811C17.0719 20.4119 17.8499 21.5774 18.2031 22.8955C18.3461 23.4286 18.8945 23.7451 19.4277 23.6025C19.9611 23.4596 20.2775 22.9113 20.1348 22.3779C19.6675 20.6344 18.6381 19.093 17.2061 17.9941C15.7741 16.8956 14.0196 16.2998 12.2148 16.2998ZM12.2148 4.2998C9.67471 4.30002 7.61555 6.3593 7.61523 8.89941C7.61523 11.4398 9.67451 13.4998 12.2148 13.5C14.7552 13.4998 16.8154 11.4398 16.8154 8.89941C16.8151 6.35931 14.755 4.30002 12.2148 4.2998ZM12.2148 6.2998C13.6504 6.30002 14.8151 7.46388 14.8154 8.89941C14.8154 10.3352 13.6506 11.4998 12.2148 11.5C10.7791 11.4998 9.61523 10.3352 9.61523 8.89941C9.61555 7.46387 10.7793 6.30002 12.2148 6.2998Z" fill="#9CA3AF"/>
<rect x="0.714844" y="1" width="23" height="23" rx="3.5" stroke="#9CA3AF"/>
</svg>
